# xmcd
#
# Track frame offsets:
#	150
#	19719
#	36304
#	52693
#	67805
#	79849
#	92385
#	112671
#	131015
#	151416
#	167954
#	184604
#
# Disc length: 2682 seconds
#
# Revision: 0
# Processed by: cddbd v1.5.2PL0 Copyright (c) Steve Scherf et al.
# Submitted via: EZCDAudioConverter 6.0.5.1
#
DISCID=860a780c
DTITLE=Holy Ghost Tent Revival - Live Parts
DYEAR=1900
DGENRE=Country
TTITLE0=Only Darkness
TTITLE1=Broken Spirit
TTITLE2=Begin Again
TTITLE3=Pat and Quinn
TTITLE4=Radio on Low
TTITLE5=Long Hard Days
TTITLE6=Sleeping
TTITLE7=Trouble with the Truth
TTITLE8=I Saw the City
TTITLE9=Shakedown
TTITLE10=My Kid Smokin (and the Moneynotes cover)
TTITLE11=Don't Belong
EXTD=
EXTT0=
EXTT1=
EXTT2=
EXTT3=
EXTT4=
EXTT5=
EXTT6=
EXTT7=
EXTT8=
EXTT9=
EXTT10=
EXTT11=
PLAYORDER=
